<svg width="35" height="35" viewBox="0 0 35 35" fill="none" xmlns="http://www.w3.org/2000/svg">
<path d="M18.3699 8.53742C19.6862 6.8137 21.5161 6.8053 21.5161 6.8053C21.5161 6.8053 21.7883 8.42588 20.4807 9.98702C19.0845 11.654 17.4974 11.3812 17.4974 11.3812C17.4974 11.3812 17.1994 10.0702 18.3699 8.53742V8.53742ZM17.6649 12.5164C18.342 12.5164 19.5988 11.5916 21.2346 11.5916C24.0505 11.5916 25.1582 13.5823 25.1582 13.5823C25.1582 13.5823 22.9916 14.6829 22.9916 17.3535C22.9916 20.366 25.6906 21.4043 25.6906 21.4043C25.6906 21.4043 23.8039 26.6803 21.2556 26.6803C20.0851 26.6803 19.1752 25.8967 17.942 25.8967C16.6852 25.8967 15.438 26.7096 14.6258 26.7096C12.2987 26.7096 9.35889 21.7047 9.35889 17.6816C9.35889 13.7234 11.8473 11.647 14.1813 11.647C15.6986 11.647 16.876 12.5164 17.6649 12.5164V12.5164Z" fill="#F3F3F4"/>
</svg>
