<svg width="35" height="35" viewBox="0 0 35 35" fill="none" xmlns="http://www.w3.org/2000/svg">
<path d="M15.3064 16.759C15.3064 16.759 17.4593 16.6037 17.4593 14.1505C17.4593 11.6973 15.698 10.5 13.4668 10.5H6.125V24.2093H13.4668C13.4668 24.2093 17.9488 24.3469 17.9488 20.163C17.9488 20.163 18.1442 16.759 15.3064 16.759V16.759ZM12.9384 12.9367H13.4668C13.4668 12.9367 14.4648 12.9367 14.4648 14.3631C14.4648 15.7893 13.8779 15.9961 13.2122 15.9961H9.3599V12.9367H12.9384V12.9367ZM13.2594 21.7727H9.3599V18.1091H13.4668C13.4668 18.1091 14.9543 18.0901 14.9543 19.9918C14.9543 21.5954 13.8433 21.7606 13.2594 21.7727V21.7727ZM23.9262 13.9881C18.5003 13.9881 18.5051 19.2556 18.5051 19.2556C18.5051 19.2556 18.1328 24.4961 23.9262 24.4961C23.9262 24.4961 28.7539 24.7641 28.7539 20.8506H26.2711C26.2711 20.8506 26.3539 22.3244 24.009 22.3244C24.009 22.3244 21.5258 22.4861 21.5258 19.9392H28.8367C28.8367 19.9392 29.6366 13.9881 23.9262 13.9881ZM21.4985 18.1091C21.4985 18.1091 21.8016 15.996 23.9813 15.996C26.1606 15.996 26.1333 18.1091 26.1333 18.1091H21.4985ZM26.7116 12.9959H20.8906V11.3077H26.7116V12.9959Z" fill="#F3F3F4"/>
</svg>
