<svg width="235" height="235" viewBox="0 0 235 235" fill="none" xmlns="http://www.w3.org/2000/svg">
<path d="M105.905 113.583C105.905 113.583 117.285 112.762 117.285 99.7957C117.285 86.8283 107.975 80.5 96.1818 80.5H57.375V152.964H96.1818C96.1818 152.964 119.872 153.691 119.872 131.576C119.872 131.576 120.905 113.583 105.905 113.583V113.583ZM93.3885 93.3796H96.1818C96.1818 93.3796 101.457 93.3796 101.457 100.919C101.457 108.458 98.3545 109.551 94.8358 109.551H74.4738V93.3796H93.3885V93.3796ZM95.0852 140.085H74.4738V120.72H96.1818C96.1818 120.72 104.044 120.619 104.044 130.671C104.044 139.147 98.1717 140.021 95.0852 140.085V140.085ZM151.467 98.9369C122.787 98.9369 122.813 126.78 122.813 126.78C122.813 126.78 120.845 154.479 151.467 154.479C151.467 154.479 176.985 155.896 176.985 135.21H163.861C163.861 135.21 164.299 143 151.905 143C151.905 143 138.779 143.855 138.779 130.393H177.422C177.422 130.393 181.651 98.9369 151.467 98.9369ZM138.635 120.72C138.635 120.72 140.237 109.55 151.758 109.55C163.277 109.55 163.133 120.72 163.133 120.72H138.635ZM166.19 93.6924H135.422V84.769H166.19V93.6924Z" fill="#F3F3F4"/>
</svg>
