<svg width="235" height="235" viewBox="0 0 235 235" fill="none" xmlns="http://www.w3.org/2000/svg">
<path fill-rule="evenodd" clip-rule="evenodd" d="M62 117.5C62 95.33 62 84.245 67.2829 76.2607C69.642 72.6954 72.6954 69.642 76.2607 67.2829C84.245 62 95.33 62 117.5 62C139.67 62 150.755 62 158.739 67.2829C162.305 69.642 165.358 72.6954 167.717 76.2607C173 84.245 173 95.33 173 117.5C173 139.67 173 150.755 167.717 158.739C165.358 162.305 162.305 165.358 158.739 167.717C150.755 173 139.67 173 117.5 173C95.33 173 84.245 173 76.2607 167.717C72.6954 165.358 69.642 162.305 67.2829 158.739C62 150.755 62 139.67 62 117.5ZM145.25 117.5C145.25 132.826 132.826 145.25 117.5 145.25C102.174 145.25 89.75 132.826 89.75 117.5C89.75 102.174 102.174 89.75 117.5 89.75C132.826 89.75 145.25 102.174 145.25 117.5ZM117.5 135.861C127.641 135.861 135.861 127.641 135.861 117.5C135.861 107.359 127.641 99.1386 117.5 99.1386C107.359 99.1386 99.1386 107.359 99.1386 117.5C99.1386 127.641 107.359 135.861 117.5 135.861ZM142.938 94.375C146.769 94.375 149.875 91.269 149.875 87.4375C149.875 83.606 146.769 80.5 142.938 80.5C139.106 80.5 136 83.606 136 87.4375C136 91.269 139.106 94.375 142.938 94.375Z" fill="#F3F3F4"/>
</svg>
