<svg width="235" height="235" viewBox="0 0 235 235" fill="none" xmlns="http://www.w3.org/2000/svg">
<path d="M67 81.4439C67 78.2372 68.1262 75.5917 70.3784 73.5074C72.6306 71.423 75.5586 70.3809 79.1622 70.3809C82.7014 70.3809 85.565 71.407 87.7529 73.4593C90.0051 75.5757 91.1313 78.3334 91.1313 81.7325C91.1313 84.8109 90.0374 87.3762 87.8494 89.4285C85.5972 91.5449 82.6371 92.6031 78.9691 92.6031H78.8726C75.3333 92.6031 72.4698 91.5449 70.2819 89.4285C68.0939 87.3121 67 84.6505 67 81.4439ZM68.2548 165.619V101.357H89.6834V165.619H68.2548ZM101.556 165.619H122.985V129.736C122.985 127.492 123.242 125.76 123.757 124.542C124.658 122.361 126.025 120.517 127.859 119.01C129.693 117.503 131.994 116.749 134.761 116.749C141.968 116.749 145.571 121.591 145.571 131.276V165.619H167V128.774C167 119.283 164.748 112.084 160.243 107.177C155.739 102.271 149.786 99.8181 142.386 99.8181C134.085 99.8181 127.618 103.378 122.985 110.496V110.689H122.888L122.985 110.496V101.357H101.556C101.685 103.41 101.749 109.791 101.749 120.501C101.749 131.211 101.685 146.251 101.556 165.619Z" fill="#F3F3F4"/>
</svg>
