<svg width="35" height="35" viewBox="0 0 35 35" fill="none" xmlns="http://www.w3.org/2000/svg">
<path d="M25.4667 10.2479C28.0535 14.0512 29.3309 18.3411 28.8534 23.2799C28.8514 23.3008 28.8405 23.3199 28.8233 23.3325C26.8644 24.7709 24.9665 25.6439 23.0953 26.2228C23.0807 26.2272 23.0651 26.2269 23.0507 26.2221C23.0363 26.2172 23.0237 26.2079 23.0148 26.1956C22.5825 25.594 22.1897 24.9599 21.8456 24.2939C21.8258 24.2547 21.8438 24.2075 21.8845 24.192C22.5083 23.957 23.1016 23.6752 23.6722 23.3417C23.7171 23.3154 23.72 23.2509 23.6785 23.22C23.5574 23.1301 23.4374 23.0356 23.3226 22.9412C23.3011 22.9237 23.2722 22.9203 23.2479 22.932C19.5434 24.6427 15.4853 24.6427 11.7371 22.932C11.7127 22.9211 11.6838 22.9248 11.6629 22.942C11.5484 23.0365 11.4281 23.1301 11.3082 23.22C11.2667 23.2509 11.2701 23.3154 11.3153 23.3417C11.8859 23.6689 12.4792 23.957 13.1021 24.1932C13.1425 24.2086 13.1617 24.2547 13.1417 24.2939C12.805 24.9607 12.4122 25.5949 11.9718 26.1964C11.9526 26.2208 11.9211 26.2319 11.8914 26.2228C10.029 25.6439 8.13107 24.7709 6.17219 23.3325C6.15587 23.3199 6.14413 23.2999 6.14241 23.279C5.7433 19.0071 6.55669 14.6816 9.52594 10.2471C9.5331 10.2353 9.54398 10.2262 9.55657 10.2207C11.0176 9.55019 12.5828 9.05689 14.2187 8.77517C14.2485 8.77059 14.2783 8.78433 14.2937 8.81067C14.4959 9.16855 14.7269 9.6275 14.8832 10.0026C16.6076 9.73915 18.359 9.73915 20.1194 10.0026C20.2758 9.63551 20.4988 9.16855 20.7001 8.81067C20.7072 8.79761 20.7183 8.78714 20.7318 8.78076C20.7453 8.77439 20.7604 8.77243 20.7751 8.77517C22.4119 9.05775 23.9771 9.55105 25.4369 10.2207C25.4498 10.2262 25.4604 10.2353 25.4667 10.2479V10.2479ZM15.7599 18.3703C15.7779 17.1074 14.8572 16.0624 13.7014 16.0624C12.555 16.0624 11.6431 17.0983 11.6431 18.3703C11.6431 19.6421 12.5731 20.6779 13.7014 20.6779C14.848 20.6779 15.7599 19.6421 15.7599 18.3703V18.3703ZM23.3704 18.3703C23.3884 17.1074 22.4677 16.0624 21.3122 16.0624C20.1655 16.0624 19.2537 17.0983 19.2537 18.3703C19.2537 19.6421 20.1836 20.6779 21.3122 20.6779C22.4677 20.6779 23.3704 19.6421 23.3704 18.3703V18.3703Z" fill="#F3F3F4"/>
</svg>
