<svg width="35" height="35" viewBox="0 0 35 35" fill="none" xmlns="http://www.w3.org/2000/svg">
<path fill-rule="evenodd" clip-rule="evenodd" d="M10.3044 23.8627C8.6848 22.0271 7.875 19.9062 7.875 17.5C7.875 17.4382 7.87886 17.3611 7.88657 17.2686C7.8943 17.176 7.89814 17.0989 7.89814 17.0372C8.19121 17.0526 8.63852 17.0604 9.24009 17.0604C12.325 17.0604 15.194 16.6362 17.8471 15.7878C18.063 16.2197 18.2867 16.7056 18.5181 17.2454C16.991 17.5848 15.4254 18.41 13.8212 19.7211C12.2171 21.0322 11.0448 22.4127 10.3044 23.8627ZM9.67969 15.1631C9.01644 15.1631 8.51513 15.1477 8.17578 15.1168C8.53057 13.7903 9.1437 12.5795 10.0152 11.4843C10.8867 10.3892 11.9317 9.53309 13.1503 8.9161C14.5539 10.3043 15.8419 12.0396 17.0141 14.1219C14.7004 14.8161 12.2556 15.1631 9.67969 15.1631ZM17.5232 27.1481C15.3329 27.1481 13.3662 26.4694 11.6232 25.1121C12.3173 23.7393 13.3855 22.4282 14.8277 21.1788C16.2699 19.9293 17.7006 19.1504 19.1196 18.8419C20.0143 21.3099 20.6158 23.8627 20.9243 26.5003C19.7983 26.9322 18.6646 27.1481 17.5232 27.1481ZM18.9345 13.4278C17.7777 11.3301 16.5206 9.57937 15.1632 8.17571C15.9498 7.95977 16.7365 7.85179 17.5232 7.85179C19.8369 7.85179 21.8884 8.59218 23.6776 10.073C22.6133 11.4303 21.0323 12.5486 18.9345 13.4278ZM20.5541 16.9447C20.2611 16.1888 19.9988 15.5641 19.7675 15.0706C22.1583 14.0217 23.855 12.7491 24.8576 11.2529C26.2458 12.888 27.0017 14.7543 27.125 16.8521C26.1842 16.8058 25.2355 16.7827 24.2792 16.7827C22.9372 16.7827 21.6956 16.8367 20.5541 16.9447ZM22.729 25.5979C22.4514 23.1917 21.9192 20.8471 21.1325 18.5643C22.2123 18.4871 23.1763 18.4486 24.0247 18.4486C24.9502 18.4486 25.9759 18.4871 27.1019 18.5643C26.9477 19.9988 26.4849 21.333 25.7137 22.567C24.9425 23.8009 23.9476 24.8113 22.729 25.5979Z" fill="#F3F3F4"/>
</svg>
