<svg width="35" height="35" viewBox="0 0 35 35" fill="none" xmlns="http://www.w3.org/2000/svg">
<path d="M28 10.0625V14.3125L17.5 18.5625L7 14.3125V10.0625C7 9.78071 7.11062 9.51046 7.30754 9.3112C7.50445 9.11194 7.77152 9 8.05 9H26.95C27.2285 9 27.4955 9.11194 27.6925 9.3112C27.8894 9.51046 28 9.78071 28 10.0625ZM7 16.6011V24.9375C7 25.2193 7.11062 25.4895 7.30754 25.6888C7.50445 25.8881 7.77152 26 8.05 26H26.95C27.2285 26 27.4955 25.8881 27.6925 25.6888C27.8894 25.4895 28 25.2193 28 24.9375V16.6011L17.5 20.8511L7 16.6011Z" fill="#F3F3F4"/>
</svg>
