<svg width="35" height="35" viewBox="0 0 35 35" fill="none" xmlns="http://www.w3.org/2000/svg">
<path d="M17.5001 6.42521C11.2297 6.42521 6.14502 11.509 6.14502 17.7803C6.14502 22.7974 9.3986 27.0537 13.9104 28.5552C14.4778 28.6603 14.6862 28.3089 14.6862 28.009C14.6862 27.7382 14.6756 26.8437 14.6708 25.8949C11.5117 26.5817 10.8451 24.5551 10.8451 24.5551C10.3286 23.2426 9.58437 22.8937 9.58437 22.8937C8.55417 22.1889 9.66203 22.2033 9.66203 22.2033C10.8023 22.2835 11.4027 23.3735 11.4027 23.3735C12.4155 25.1095 14.0591 24.6076 14.7071 24.3175C14.8089 23.5835 15.1033 23.0826 15.428 22.7991C12.9059 22.5119 10.2545 21.5382 10.2545 17.1873C10.2545 15.9476 10.6981 14.9346 11.4245 14.1394C11.3066 13.8534 10.918 12.6985 11.5345 11.1344C11.5345 11.1344 12.488 10.8292 14.658 12.2984C15.5637 12.0467 16.5351 11.9206 17.5001 11.9163C18.4651 11.9206 19.4373 12.0467 20.3448 12.2984C22.5121 10.8292 23.4643 11.1344 23.4643 11.1344C24.0824 12.6985 23.6935 13.8534 23.5756 14.1394C24.3037 14.9346 24.7442 15.9475 24.7442 17.1873C24.7442 21.5486 22.0879 22.5089 19.5594 22.79C19.9666 23.1424 20.3295 23.8335 20.3295 24.8928C20.3295 26.4121 20.3164 27.6349 20.3164 28.009C20.3164 28.3111 20.5207 28.6652 21.0964 28.5537C25.6057 27.0505 28.8552 22.7957 28.8552 17.7803C28.8552 11.509 23.7712 6.42521 17.5001 6.42521Z" fill="#F3F3F4"/>
</svg>
