<svg width="35" height="35" viewBox="0 0 35 35" fill="none" xmlns="http://www.w3.org/2000/svg">
<path fill-rule="evenodd" clip-rule="evenodd" d="M7 17.5C7 13.3057 7 11.2085 7.99947 9.69798C8.44579 9.02345 9.02345 8.44579 9.69798 7.99947C11.2085 7 13.3057 7 17.5 7C21.6943 7 23.7915 7 25.302 7.99947C25.9765 8.44579 26.5542 9.02345 27.0005 9.69798C28 11.2085 28 13.3057 28 17.5V17.5V17.5C28 21.6943 28 23.7915 27.0005 25.302C26.5542 25.9765 25.9765 26.5542 25.302 27.0005C23.7915 28 21.6943 28 17.5 28H17.5H17.5C13.3057 28 11.2085 28 9.69798 27.0005C9.02345 26.5542 8.44579 25.9765 7.99947 25.302C7 23.7915 7 21.6943 7 17.5ZM22.75 17.5C22.75 20.3995 20.3995 22.75 17.5 22.75C14.6005 22.75 12.25 20.3995 12.25 17.5C12.25 14.6005 14.6005 12.25 17.5 12.25C20.3995 12.25 22.75 14.6005 22.75 17.5ZM17.5 20.9738C19.4185 20.9738 20.9738 19.4185 20.9738 17.5C20.9738 15.5815 19.4185 14.0262 17.5 14.0262C15.5815 14.0262 14.0262 15.5815 14.0262 17.5C14.0262 19.4185 15.5815 20.9738 17.5 20.9738ZM22.3125 13.125C23.0374 13.125 23.625 12.5374 23.625 11.8125C23.625 11.0876 23.0374 10.5 22.3125 10.5C21.5876 10.5 21 11.0876 21 11.8125C21 12.5374 21.5876 13.125 22.3125 13.125Z" fill="#F3F3F4"/>
</svg>
