<svg width="35" height="35" viewBox="0 0 35 35" fill="none" xmlns="http://www.w3.org/2000/svg">
<path d="M8.75 11.1027C8.75 10.5415 8.94708 10.0785 9.34122 9.71379C9.73535 9.34902 10.2478 9.16665 10.8784 9.16665C11.4978 9.16665 11.9989 9.34621 12.3818 9.70537C12.7759 10.0757 12.973 10.5583 12.973 11.1532C12.973 11.6919 12.7815 12.1408 12.3986 12.5C12.0045 12.8704 11.4865 13.0555 10.8446 13.0555H10.8277C10.2083 13.0555 9.70721 12.8704 9.32432 12.5C8.94144 12.1296 8.75 11.6638 8.75 11.1027ZM8.96959 25.8333V14.5875H12.7196V25.8333H8.96959ZM14.7973 25.8333H18.5473V19.5539C18.5473 19.161 18.5923 18.858 18.6824 18.6448C18.8401 18.2632 19.0794 17.9405 19.4003 17.6767C19.7213 17.413 20.1239 17.2811 20.6081 17.2811C21.8694 17.2811 22.5 18.1285 22.5 19.8232V25.8333H26.25V19.3855C26.25 17.7244 25.8559 16.4646 25.0676 15.606C24.2793 14.7475 23.2376 14.3182 21.9426 14.3182C20.4899 14.3182 19.3581 14.9411 18.5473 16.1868V16.2205H18.5304L18.5473 16.1868V14.5875H14.7973C14.8198 14.9467 14.8311 16.0634 14.8311 17.9377C14.8311 19.812 14.8198 22.4438 14.7973 25.8333Z" fill="#F3F3F4"/>
</svg>
