<svg width="35" height="35" viewBox="0 0 35 35" fill="none" xmlns="http://www.w3.org/2000/svg">
<path fill-rule="evenodd" clip-rule="evenodd" d="M9.49291 7.55545C9.2637 7.80331 9.13196 8.1848 9.13196 8.68052V26.3132C9.13196 26.8089 9.2637 27.1904 9.50148 27.4297L9.5636 27.4825L19.3832 17.6025V17.3805L9.55503 7.50264L9.49291 7.55545Z" fill="#F3F3F4"/>
<path fill-rule="evenodd" clip-rule="evenodd" d="M23.3931 20.9118L20.1178 17.6153V17.3847L23.3942 14.0881L23.4649 14.1323L27.34 16.348C28.4497 16.9773 28.4497 18.014 27.34 18.652L23.4649 20.8677C23.4638 20.8677 23.3931 20.9118 23.3931 20.9118Z" fill="#F3F3F4"/>
<path fill-rule="evenodd" clip-rule="evenodd" d="M23.1172 21.2138L19.7711 17.8461L9.8894 27.7886C10.2504 28.1787 10.8577 28.2229 11.5367 27.8414L23.1172 21.2138Z" fill="#F3F3F4"/>
<path fill-rule="evenodd" clip-rule="evenodd" d="M23.1172 13.7832L11.5367 7.16425C10.8587 6.77413 10.2504 6.82694 9.8894 7.21705L19.7701 17.1498L23.1172 13.7832Z" fill="#F3F3F4"/>
</svg>
