<svg width="35" height="35" viewBox="0 0 35 35" fill="none" xmlns="http://www.w3.org/2000/svg">
<path d="M8.74992 16.7045V18.2954C8.74992 19.1008 8.097 19.7538 7.29159 19.7538C6.48618 19.7538 5.83325 19.1008 5.83325 18.2954V16.7045C5.83325 15.8991 6.48618 15.2461 7.29159 15.2461C8.097 15.2461 8.74992 15.8991 8.74992 16.7045Z" fill="#F3F3F4"/>
<path d="M26.2506 16.7459C26.2502 16.7321 26.25 16.7183 26.25 16.7045C26.25 15.8991 26.9029 15.2461 27.7083 15.2461C28.5137 15.2461 29.1667 15.8991 29.1667 16.7045C29.1667 16.7183 29.1665 16.7322 29.1661 16.7459H29.1667V18.3368H29.1661C29.1442 19.1231 28.4999 19.7537 27.7083 19.7537C26.9168 19.7537 26.2725 19.1231 26.2506 18.3368H26.25V16.7459H26.2506V16.7459Z" fill="#F3F3F4"/>
<path d="M13.7879 21.4773V23.0682C13.7879 23.8736 13.135 24.5265 12.3295 24.5265C11.5241 24.5265 10.8712 23.8736 10.8712 23.0682V21.4772C10.8712 20.6718 11.5241 20.0189 12.3295 20.0189C13.135 20.0189 13.7879 20.6718 13.7879 21.4772V21.4773ZM13.7879 11.9318V17.1354H13.7875C13.7699 17.9255 13.1239 18.5606 12.3295 18.5606C11.5352 18.5606 10.8892 17.9255 10.8716 17.1354H10.8712V11.9318C10.8712 11.1264 11.5241 10.4734 12.3295 10.4734C13.135 10.4734 13.7879 11.1264 13.7879 11.9318V11.9318Z" fill="#F3F3F4"/>
<path d="M21.2123 13.5227C21.2123 14.3281 21.8652 14.981 22.6706 14.981C23.4761 14.981 24.1289 14.3281 24.1289 13.5227V11.9318C24.1289 11.1264 23.476 10.4734 22.6706 10.4734C21.8652 10.4734 21.2123 11.1264 21.2123 11.9318V13.5227Z" fill="#F3F3F4"/>
<path d="M16.0417 8.88261C16.0417 9.68798 16.6947 10.3409 17.5001 10.3409C18.3055 10.3409 18.9584 9.68798 18.9584 8.88261V7.29166C18.9584 6.48625 18.3055 5.83333 17.5001 5.83333C16.6947 5.83333 16.0417 6.48625 16.0417 7.29166V8.88261ZM16.0417 26.1174C16.0417 25.312 16.6947 24.659 17.5001 24.659C18.3055 24.659 18.9584 25.312 18.9584 26.1174V27.7083C18.9584 28.5137 18.3055 29.1667 17.5001 29.1667C16.6947 29.1667 16.0417 28.5137 16.0417 27.7083V26.1174Z" fill="#F3F3F4"/>
<path d="M21.2123 17.8978C21.2123 17.0923 21.8652 16.4394 22.6706 16.4394C23.4761 16.4394 24.1289 17.0923 24.1289 17.8978V23.0682C24.1289 23.8736 23.476 24.5266 22.6706 24.5266C21.8652 24.5266 21.2123 23.8736 21.2123 23.0682V17.8978Z" fill="#F3F3F4"/>
<path d="M18.9584 13.2576V21.7424C18.9584 22.5478 18.3055 23.2007 17.5001 23.2007C16.6947 23.2007 16.0417 22.5478 16.0417 21.7424V13.2576C16.0417 12.4522 16.6947 11.7993 17.5001 11.7993C18.3055 11.7993 18.9584 12.4522 18.9584 13.2576Z" fill="#F3F3F4"/>
</svg>
