<svg width="35" height="35" viewBox="0 0 35 35" fill="none" xmlns="http://www.w3.org/2000/svg">
<path d="M27.852 22.7695C24.8231 22.2708 23.4665 19.1763 23.4105 19.0443L23.4042 19.0327C23.3181 18.892 23.2638 18.7341 23.2452 18.5702C23.2266 18.4063 23.2441 18.2403 23.2964 18.0839C23.4993 17.6043 24.1733 17.3909 24.6181 17.2493C24.7301 17.2144 24.8347 17.1806 24.9171 17.1479C25.7232 16.8309 25.8869 16.5002 25.8827 16.2794C25.8616 16.1422 25.8001 16.0143 25.706 15.9121C25.6119 15.81 25.4895 15.7381 25.3545 15.7057L25.3471 15.7036C25.2276 15.6553 25.0999 15.6305 24.971 15.6307C24.8572 15.6291 24.7445 15.6518 24.6403 15.6973C24.3257 15.8563 23.9828 15.9518 23.6313 15.9783C23.4284 15.9831 23.2303 15.9165 23.0714 15.7903L23.1052 15.2303L23.1094 15.1616C23.3129 13.7381 23.2267 12.2881 22.8559 10.8987C22.4184 9.90099 21.6967 9.05429 20.7809 8.46431C19.8651 7.87432 18.7958 7.56719 17.7065 7.58126L17.2818 7.58654C16.1944 7.57319 15.1271 7.88038 14.2132 8.46979C13.2994 9.05919 12.5793 9.9047 12.1429 10.9008C11.7716 12.2886 11.6846 13.7372 11.8873 15.1595C11.9014 15.3701 11.914 15.5807 11.9253 15.7913C11.7501 15.9284 11.5302 15.9955 11.3083 15.9794C10.935 15.9633 10.5695 15.8667 10.237 15.6962C10.1556 15.6602 10.0672 15.6425 9.97817 15.6445C9.79463 15.6374 9.61348 15.6879 9.46004 15.7889C9.30661 15.8898 9.18856 16.0362 9.1224 16.2076C9.03577 16.6619 9.68446 16.9926 10.0796 17.1479C10.1641 17.1817 10.2676 17.2144 10.3786 17.2493C10.8244 17.3909 11.4985 17.6043 11.7013 18.0839C11.7535 18.2404 11.7709 18.4063 11.7523 18.5702C11.7337 18.7341 11.6795 18.8919 11.5936 19.0327L11.5872 19.0443C11.2954 19.6802 10.9152 20.2717 10.4578 20.8012C9.62689 21.8343 8.4513 22.5332 7.14675 22.7695C7.0852 22.7798 7.02961 22.8124 6.99062 22.8612C6.95164 22.9099 6.93199 22.9713 6.93545 23.0336C6.93783 23.0809 6.94856 23.1274 6.96714 23.171C7.15414 23.6052 8.08598 23.9633 9.66439 24.2074C9.8123 24.2306 9.87358 24.4715 9.96021 24.8645C9.99402 25.023 10.0299 25.1868 10.0796 25.3558C10.0961 25.4307 10.1398 25.4968 10.2023 25.5413C10.2647 25.5858 10.3415 25.6056 10.4177 25.5967C10.5685 25.5885 10.7184 25.5673 10.8656 25.5333C11.2545 25.4484 11.6509 25.4034 12.0489 25.3991C12.3353 25.3997 12.6212 25.4237 12.9036 25.471C13.4995 25.6219 14.0538 25.905 14.5253 26.2993C15.3213 26.979 16.3216 27.3732 17.3673 27.4192C17.4022 27.4192 17.4381 27.4181 17.473 27.4149C17.5152 27.417 17.5733 27.4192 17.6325 27.4192C18.6789 27.3732 19.6799 26.9791 20.4766 26.2993C20.9475 25.9051 21.501 25.622 22.0962 25.471C22.3783 25.4238 22.6638 25.3998 22.9499 25.3991C23.3475 25.4011 23.744 25.4432 24.1332 25.5249C24.2809 25.5569 24.4311 25.5757 24.5822 25.5808H24.6075C24.6788 25.5865 24.7498 25.5661 24.8071 25.5233C24.8645 25.4805 24.9043 25.4184 24.9192 25.3484C24.9653 25.1872 25.0054 25.0244 25.0396 24.8603C25.1252 24.4684 25.1875 24.2285 25.3355 24.2053C26.9139 23.9623 27.8468 23.6031 28.0306 23.172C28.0498 23.1286 28.0612 23.0821 28.0644 23.0347C28.0679 22.9724 28.0482 22.911 28.0092 22.8622C27.9702 22.8135 27.9146 22.7809 27.8531 22.7706L27.852 22.7695Z" fill="#F3F3F4"/>
</svg>
