<svg width="35" height="35" viewBox="0 0 35 35" fill="none" xmlns="http://www.w3.org/2000/svg">
<path d="M5.83325 21.6255C5.83325 21.9135 5.93823 22.1313 6.14813 22.2789C6.35805 22.4265 6.58244 22.4787 6.82131 22.4355C7.04569 22.3923 7.20313 22.3131 7.29364 22.1979C7.38411 22.0827 7.42937 21.8919 7.42937 21.6255V18.4936C7.42937 18.2703 7.35156 18.0813 7.19592 17.9266C7.04031 17.7718 6.8503 17.6944 6.62589 17.6944C6.40874 17.6944 6.22235 17.7718 6.06672 17.9266C5.91108 18.0813 5.83325 18.2703 5.83325 18.4936V21.6255ZM8.33054 22.9647C8.33054 23.1736 8.40474 23.3301 8.55312 23.4345C8.70153 23.539 8.89154 23.5911 9.12315 23.5911C9.36202 23.5911 9.55564 23.5389 9.70404 23.4345C9.85243 23.3302 9.92663 23.1736 9.92663 22.9647V15.664C9.92663 15.448 9.8488 15.2626 9.69319 15.1078C9.53755 14.953 9.34754 14.8756 9.12315 14.8756C8.906 14.8756 8.71959 14.953 8.56398 15.1078C8.40834 15.2626 8.33054 15.448 8.33054 15.664V22.9647V22.9647ZM10.817 23.3103C10.817 23.5191 10.893 23.6757 11.045 23.7801C11.197 23.8845 11.3924 23.9367 11.6313 23.9367C11.8629 23.9367 12.0529 23.8845 12.2013 23.7801C12.3497 23.6757 12.4239 23.5191 12.4239 23.3103V16.6468C12.4239 16.4236 12.3461 16.2328 12.1905 16.0744C12.0349 15.916 11.8485 15.8368 11.6313 15.8368C11.4069 15.8368 11.2151 15.916 11.0559 16.0744C10.8966 16.2328 10.817 16.4236 10.817 16.6468V23.3103H10.817ZM13.3142 23.3427C13.3142 23.7387 13.5821 23.9367 14.1177 23.9367C14.6534 23.9367 14.9212 23.7387 14.9212 23.3427V12.5428C14.9212 11.938 14.7366 11.596 14.3674 11.5168C14.1286 11.4592 13.8933 11.5276 13.6617 11.722C13.43 11.9164 13.3142 12.19 13.3142 12.5428V23.3427H13.3142ZM15.855 23.6559V11.9056C15.855 11.5312 15.9672 11.308 16.1916 11.236C16.6766 11.1208 17.1579 11.0632 17.6357 11.0632C18.7431 11.0632 19.7746 11.3224 20.7301 11.8408C21.6856 12.3592 22.4583 13.0666 23.0482 13.963C23.6382 14.8594 23.9802 15.8476 24.0743 16.9276C24.5158 16.7404 24.9863 16.6468 25.4858 16.6468C26.4992 16.6468 27.366 17.0032 28.0862 17.716C28.8065 18.4288 29.1666 19.2856 29.1666 20.2864C29.1666 21.2944 28.8065 22.1548 28.0862 22.8676C27.366 23.5804 26.5028 23.9368 25.4966 23.9368L16.0504 23.926C15.9852 23.9044 15.9364 23.8648 15.9038 23.8072C15.8712 23.7496 15.855 23.6991 15.855 23.6559V23.6559Z" fill="#F3F3F4"/>
</svg>
