<svg width="35" height="35" viewBox="0 0 35 35" fill="none" xmlns="http://www.w3.org/2000/svg">
<path d="M17.4998 7.42721C12.1302 7.42721 7.77759 11.7798 7.77759 17.1494C7.77759 22.519 12.1302 26.8717 17.4998 26.8717C22.8694 26.8717 27.222 22.519 27.222 17.1494C27.222 11.7805 22.8694 7.42787 17.4998 7.42721ZM21.9586 21.449C21.7841 21.7356 21.4106 21.8251 21.1253 21.6506C18.8425 20.2555 15.9687 19.9404 12.5846 20.7132C12.2582 20.7882 11.9332 20.5839 11.8589 20.2575C11.7839 19.9311 11.9876 19.606 12.3146 19.5317C16.0178 18.6859 19.1948 19.0501 21.7576 20.6157C22.0428 20.7915 22.1337 21.1637 21.9586 21.449V21.449ZM23.1481 18.8026C22.9285 19.1596 22.4614 19.271 22.1052 19.0521C19.4927 17.446 15.5083 16.9809 12.4175 17.919C12.0168 18.0404 11.5935 17.8142 11.4714 17.4141C11.3507 17.0134 11.5769 16.5908 11.977 16.4688C15.5076 15.3974 19.8974 15.9162 22.8979 17.7604C23.2549 17.98 23.3676 18.4464 23.1481 18.8026ZM23.2502 16.0455C20.1163 14.1847 14.947 14.0135 11.9551 14.921C11.4748 15.067 10.9666 14.7957 10.8213 14.3154C10.676 13.8351 10.9467 13.3269 11.4277 13.1809C14.8621 12.1387 20.5707 12.3397 24.1783 14.4812C24.6102 14.7379 24.7522 15.2959 24.4961 15.7271C24.2407 16.1596 23.6814 16.3023 23.2502 16.0455Z" fill="#F3F3F4"/>
</svg>
