<svg width="35" height="35" viewBox="0 0 35 35" fill="none" xmlns="http://www.w3.org/2000/svg">
<path d="M6.63028 16.345C6.63028 16.345 16.2089 12.4139 19.5309 11.0297C20.8044 10.4761 25.123 8.70425 25.123 8.70425C25.123 8.70425 27.1163 7.92915 26.9502 9.81161C26.8948 10.5868 26.4519 13.2998 26.009 16.2343C25.3445 20.3869 24.6247 24.927 24.6247 24.927C24.6247 24.927 24.514 26.2005 23.5728 26.4219C22.6315 26.6434 21.0812 25.6468 20.8044 25.4253C20.5829 25.2592 16.6518 22.7676 15.2123 21.5495C14.8247 21.2174 14.3817 20.553 15.2676 19.7778C17.2608 17.9507 19.6416 15.6806 21.0812 14.2411C21.7456 13.5766 22.41 12.0263 19.6416 13.9088C15.7106 16.6219 11.8348 19.1688 11.8348 19.1688C11.8348 19.1688 10.9489 19.7224 9.28792 19.2241C7.62684 18.7258 5.68897 18.0614 5.68897 18.0614C5.68897 18.0614 4.36022 17.2309 6.63028 16.345V16.345Z" fill="#F3F3F4"/>
</svg>
