<svg width="35" height="35" viewBox="0 0 35 35" fill="none" xmlns="http://www.w3.org/2000/svg">
<path d="M25.948 12.6941C24.8486 12.6941 23.8321 12.3289 23.0189 11.7152C22.0852 11.0112 21.4112 9.97581 21.1741 8.7861C21.1138 8.49244 21.0837 8.18748 21.0799 7.87499H17.9362V16.4628L17.9325 21.1651C17.9325 22.4226 17.1117 23.4881 15.9785 23.8646C15.6472 23.9738 15.2933 24.0265 14.9243 24.0039C14.4499 23.9775 14.0094 23.8345 13.6216 23.6048C12.8009 23.1154 12.2475 22.2268 12.2324 21.2065C12.2098 19.6178 13.4936 18.3189 15.0824 18.3189C15.3949 18.3189 15.6961 18.3716 15.9785 18.4619V16.1164V15.2768C15.6811 15.2316 15.3799 15.209 15.0711 15.209C13.3317 15.209 11.7053 15.9319 10.5419 17.2346C9.66472 18.2172 9.13763 19.4747 9.0548 20.7924C8.94939 22.5205 9.58189 24.1658 10.8093 25.3781C10.99 25.555 11.1782 25.7207 11.3778 25.875C12.4319 26.6845 13.7158 27.125 15.0711 27.125C15.3761 27.125 15.6811 27.1024 15.9785 27.0572C17.2435 26.869 18.4106 26.2892 19.333 25.3781C20.4663 24.2599 21.0912 22.7728 21.0988 21.1915L21.0837 14.1662C21.6258 14.5841 22.2132 14.9267 22.8494 15.194C23.8359 15.6119 24.8825 15.819 25.9555 15.819V13.5374V12.6903C25.9593 12.6941 25.948 12.6941 25.948 12.6941Z" fill="#F3F3F4"/>
</svg>
