<svg width="35" height="35" viewBox="0 0 35 35" fill="none" xmlns="http://www.w3.org/2000/svg">
<path d="M21.6202 7.87927V7.875H22.7689L23.1887 7.95619C23.4685 8.0089 23.7226 8.07797 23.9509 8.16343C24.1792 8.24889 24.4001 8.3486 24.6136 8.46254C24.8272 8.57648 25.0209 8.69258 25.1947 8.81079C25.367 8.9276 25.5216 9.05151 25.6586 9.18255C25.7941 9.31501 26.0054 9.3492 26.2926 9.2851C26.5798 9.221 26.8891 9.13198 27.2205 9.01804C27.5518 8.9041 27.8796 8.7759 28.2036 8.63346C28.5276 8.49102 28.725 8.40058 28.7957 8.36213C28.8649 8.32226 28.9017 8.30089 28.9061 8.29803L28.9105 8.29162L28.9326 8.28094L28.9547 8.27026L28.9768 8.25957L28.9989 8.24889L29.0033 8.24248L29.0099 8.23821L29.0166 8.23393L29.021 8.22752L29.0431 8.22112L29.0651 8.21684L29.0608 8.24889L29.0541 8.28094L29.0431 8.31299L29.032 8.34503L29.021 8.3664L29.0099 8.38776L28.9989 8.41981C28.9915 8.44118 28.9842 8.46966 28.9768 8.50527C28.9694 8.54089 28.8995 8.68331 28.7669 8.93257C28.6344 9.18184 28.4687 9.43466 28.2698 9.69104C28.071 9.94742 27.8928 10.1411 27.7352 10.2722C27.5762 10.4046 27.4709 10.4972 27.4193 10.5499C27.3678 10.604 27.3052 10.6539 27.2315 10.6995L27.1211 10.77L27.099 10.7807L27.0769 10.7913L27.0725 10.7978L27.0658 10.802L27.0592 10.8063L27.0548 10.8127L27.0327 10.8234L27.0106 10.8341L27.0062 10.8405L26.9995 10.8448L26.9929 10.849L26.9885 10.8554L26.9841 10.8618L26.9775 10.8661L26.9708 10.8704L26.9664 10.8768H27.0769L27.6954 10.7486C28.1078 10.6632 28.5018 10.5599 28.8774 10.4388L29.4739 10.2465L29.5401 10.2252L29.5733 10.2145L29.5954 10.2038L29.6174 10.1931L29.6395 10.1824L29.6616 10.1718L29.7058 10.1653L29.75 10.1611V10.2038L29.739 10.2081L29.7279 10.2145L29.7235 10.2209L29.7169 10.2252L29.7102 10.2294L29.7058 10.2358L29.7014 10.2423L29.6948 10.2465L29.6881 10.2508L29.6837 10.2572L29.6793 10.2636L29.6727 10.2679L29.6616 10.2893L29.6506 10.3106L29.644 10.3149C29.641 10.3192 29.5475 10.4402 29.3634 10.6781C29.1793 10.9174 29.0799 11.0385 29.0651 11.0413C29.0504 11.0456 29.0298 11.067 29.0033 11.1054C28.9783 11.1453 28.8221 11.3041 28.5349 11.5819C28.2477 11.8596 27.9665 12.1067 27.6911 12.3232C27.4142 12.5411 27.2742 12.8089 27.2713 13.1266C27.2669 13.4428 27.2499 13.8003 27.2205 14.1991C27.191 14.5979 27.1358 15.0288 27.0548 15.4917C26.9738 15.9546 26.8486 16.478 26.6792 17.062C26.5099 17.646 26.3037 18.2157 26.0606 18.7712C25.8176 19.3267 25.5636 19.8252 25.2985 20.2668C25.0334 20.7083 24.7904 21.0822 24.5694 21.3885C24.3485 21.6947 24.1239 21.9831 23.8956 22.2537C23.6674 22.5244 23.3787 22.8292 23.0296 23.1682C22.6791 23.5057 22.4877 23.6909 22.4553 23.7237C22.4214 23.755 22.2771 23.8718 22.0222 24.0741C21.7689 24.2777 21.4964 24.4814 21.2048 24.6851C20.9147 24.8874 20.6481 25.0561 20.4051 25.1915C20.1621 25.3268 19.869 25.4813 19.5258 25.6551C19.1842 25.8303 18.8145 25.9926 18.4168 26.1422C18.0192 26.2918 17.5994 26.4306 17.1576 26.5588C16.7157 26.687 16.2886 26.7867 15.8762 26.8579C15.4639 26.9291 14.9963 26.9897 14.4734 27.0395L13.6891 27.1143V27.125H12.2532V27.1143L12.0654 27.1036C11.9402 27.0965 11.8371 27.0894 11.7561 27.0823C11.6751 27.0752 11.3695 27.036 10.8393 26.9648C10.3091 26.8936 9.893 26.8223 9.59107 26.7511C9.28916 26.6799 8.83995 26.5446 8.24346 26.3452C7.64698 26.1458 7.13665 25.9442 6.71249 25.7405C6.2898 25.5383 6.0247 25.4101 5.91718 25.356C5.81114 25.3033 5.69184 25.2378 5.55929 25.1594L5.36046 25.0419L5.35606 25.0355L5.34941 25.0312L5.34279 25.0269L5.33837 25.0205L5.31628 25.0098L5.29418 24.9992L5.28979 24.9928L5.28314 24.9885L5.27651 24.9842L5.27209 24.9778L5.2677 24.9714L5.26105 24.9671H5.25V24.9244L5.27209 24.9287L5.29418 24.9351L5.3936 24.9458C5.45987 24.9529 5.6403 24.9636 5.93485 24.9778C6.22943 24.9921 6.54238 24.9921 6.87376 24.9778C7.20514 24.9636 7.5439 24.9315 7.88999 24.8817C8.23611 24.8318 8.64481 24.7464 9.1161 24.6253C9.58741 24.5042 10.0204 24.3603 10.4151 24.1937C10.8084 24.0256 11.0882 23.9003 11.2546 23.8177C11.4196 23.7365 11.6714 23.5855 12.0101 23.3647L12.5183 23.0336L12.5227 23.0272L12.5293 23.0229L12.536 23.0186L12.5404 23.0122L12.5448 23.0058L12.5514 23.0015L12.558 22.9973L12.5624 22.9908L12.5845 22.9844L12.6066 22.9802L12.611 22.9588L12.6177 22.9374L12.6243 22.9332L12.6287 22.9267L12.452 22.9161C12.3342 22.909 12.22 22.9018 12.1096 22.8947C11.9991 22.8876 11.8261 22.8555 11.5904 22.7986C11.3548 22.7416 11.1007 22.6561 10.8282 22.5422C10.5558 22.4282 10.2907 22.2929 10.0329 22.1362C9.77519 21.9796 9.58886 21.8492 9.47399 21.7453C9.36059 21.6427 9.2133 21.4974 9.03215 21.3094C8.85247 21.12 8.69635 20.9255 8.5638 20.7261C8.43124 20.5267 8.30459 20.2967 8.18384 20.036L8.00045 19.6472L7.9894 19.6151L7.97836 19.5831L7.97173 19.5617L7.96731 19.5404L8.00045 19.5446L8.03359 19.5511L8.2766 19.5831C8.43862 19.6045 8.69268 19.6116 9.03877 19.6045C9.38489 19.5974 9.62421 19.5831 9.75676 19.5617C9.88931 19.5404 9.97033 19.5261 9.99977 19.519L10.044 19.5083L10.0992 19.4976L10.1544 19.487L10.1588 19.4805L10.1655 19.4763L10.1721 19.472L10.1765 19.4656L10.1323 19.4549L10.0881 19.4442L10.044 19.4335L9.99977 19.4229L9.95559 19.4122C9.92614 19.4051 9.8746 19.3908 9.80095 19.3695C9.72731 19.3481 9.52849 19.2697 9.20446 19.1344C8.88046 18.9991 8.62272 18.8674 8.43124 18.7392C8.2393 18.6106 8.05628 18.47 7.88336 18.3183C7.71105 18.1645 7.52181 17.9665 7.3156 17.7243C7.10942 17.4822 6.92532 17.2009 6.7633 16.8804C6.6013 16.5599 6.47979 16.2537 6.39878 15.9617C6.3181 15.6714 6.26486 15.3747 6.23974 15.0751L6.19995 14.6264L6.22205 14.6307L6.24414 14.6371L6.26623 14.6478L6.28832 14.6584L6.31041 14.6691L6.33251 14.6798L6.67493 14.8294C6.90323 14.9291 7.18674 15.0145 7.52547 15.0857C7.86423 15.1569 8.06673 15.1961 8.133 15.2032L8.23242 15.2139H8.43124L8.42685 15.2075L8.4202 15.2032L8.41357 15.199L8.40915 15.1926L8.40476 15.1862L8.39811 15.1819L8.39148 15.1776L8.38706 15.1712L8.36497 15.1605L8.34288 15.1498L8.33848 15.1434L8.33183 15.1392L8.3252 15.1349L8.32078 15.1285L8.29869 15.1178L8.2766 15.1071L8.2722 15.1007C8.26779 15.0978 8.20445 15.0523 8.08219 14.964C7.96141 14.8742 7.83476 14.7581 7.70221 14.6157C7.56966 14.4733 7.43711 14.3237 7.30455 14.167C7.17176 14.01 7.05348 13.842 6.95108 13.665C6.848 13.4869 6.739 13.2604 6.62412 12.9855C6.51072 12.7121 6.42456 12.4365 6.36564 12.1587C6.30675 11.881 6.27361 11.6068 6.26623 11.3362C6.25887 11.0655 6.26623 10.8341 6.28832 10.6418C6.31041 10.4495 6.3546 10.2323 6.42087 9.99015C6.48715 9.74802 6.5829 9.49164 6.70807 9.221L6.89585 8.81507L6.9069 8.78302L6.91794 8.75097L6.92459 8.7467L6.92899 8.74029L6.93341 8.73388L6.94004 8.72961L6.94669 8.73388L6.95108 8.74029L6.9555 8.7467L6.96213 8.75097L6.96878 8.75524L6.97317 8.76165L6.97759 8.76806L6.98422 8.77234L6.99527 8.7937L7.00631 8.81507L7.01296 8.81934L7.01736 8.82575L7.3156 9.14623C7.51443 9.35988 7.75008 9.59846 8.02254 9.86196C8.29503 10.1255 8.44598 10.2622 8.47543 10.2722C8.5049 10.2836 8.5417 10.3163 8.58589 10.3704C8.63007 10.4232 8.77736 10.5492 9.02773 10.7486C9.27812 10.948 9.60581 11.1795 10.0108 11.443C10.4159 11.7065 10.8651 11.9664 11.3584 12.2228C11.8518 12.4792 12.382 12.7106 12.9491 12.9172C13.5161 13.1237 13.9137 13.259 14.142 13.3231C14.3703 13.3872 14.7606 13.4691 15.3129 13.5688C15.8652 13.6685 16.2813 13.7326 16.5611 13.7611C16.8409 13.7896 17.0324 13.806 17.1355 13.8102L17.2901 13.8145L17.2857 13.7825L17.2791 13.7504L17.2349 13.4834C17.2054 13.3053 17.1907 13.056 17.1907 12.7356C17.1907 12.4151 17.2165 12.1196 17.268 11.8489C17.3196 11.5783 17.3969 11.3041 17.5 11.0264C17.6031 10.7486 17.704 10.5257 17.8027 10.3576C17.9028 10.191 18.0339 10.0008 18.1959 9.78718C18.3579 9.57353 18.5678 9.35276 18.8255 9.12486C19.0833 8.89696 19.3778 8.69399 19.7092 8.51595C20.0406 8.33792 20.3462 8.20259 20.626 8.11002C20.9059 8.01744 21.1415 7.95689 21.333 7.92841C21.5244 7.89993 21.6202 7.88355 21.6202 7.87927V7.87927Z" fill="#F3F3F4"/>
</svg>
