<svg width="35" height="35" viewBox="0 0 35 35" fill="none" xmlns="http://www.w3.org/2000/svg">
<path d="M30.4294 21.2239C30.4294 17.1553 26.9936 13.8366 22.7631 13.8366C18.5326 13.8366 15.1204 17.1553 15.1204 21.2239C15.1204 25.2924 18.5561 28.6112 22.7866 28.6112C23.6049 28.6112 24.3761 28.5045 25.1003 28.2632C25.311 28.2093 25.5442 28.2363 25.7549 28.3441L27.6482 29.5214C27.7649 29.6022 27.9285 29.4675 27.8815 29.307L27.5071 27.5674C27.46 27.3003 27.5306 27.032 27.7403 26.8715C29.3779 25.5068 30.4294 23.4989 30.4294 21.2239V21.2239ZM20.029 20.2609C19.445 20.2609 18.9775 19.7255 18.9775 19.0566C18.9775 18.3877 19.445 17.8524 20.029 17.8524C20.6131 17.8524 21.0805 18.3877 21.0805 19.0566C21.0805 19.7255 20.6131 20.2609 20.029 20.2609ZM25.1944 20.2609C24.6104 20.2609 24.1429 19.7255 24.1429 19.0566C24.1429 18.3877 24.6104 17.8524 25.1944 17.8524C25.7785 17.8524 26.2459 18.3877 26.2459 19.0566C26.2459 19.7255 25.7549 20.2609 25.1944 20.2609Z" fill="#F3F3F4"/>
<path d="M14.49 21.2508C14.49 16.7277 18.2295 13.0599 22.8569 13.0599H23.2077C22.459 8.96441 18.6734 5.83307 14.1156 5.83307C8.99725 5.83307 4.86084 9.74109 4.86084 14.5863C4.86084 17.2631 6.14656 19.6716 8.15647 21.2777C8.2966 21.3843 8.34365 21.5718 8.32012 21.7592L7.61947 24.5965C7.57242 24.7839 7.7596 24.9714 7.92326 24.8636L10.6573 22.9904C10.8445 22.8569 11.0542 22.8299 11.2649 22.9096C12.1763 23.1767 13.1347 23.3384 14.1166 23.3384C14.3273 23.3384 14.537 23.3384 14.7712 23.3114C14.583 22.6425 14.49 21.9466 14.49 21.2508V21.2508ZM17.224 10.4639C17.9022 10.4639 18.4627 11.1059 18.4627 11.8825C18.4627 12.6592 17.9022 13.3012 17.224 13.3012C16.5459 13.3012 15.9854 12.6592 15.9854 11.8825C15.9854 11.1059 16.5469 10.4639 17.224 10.4639ZM11.0072 13.3012C10.329 13.3012 9.76848 12.6592 9.76848 11.8825C9.76848 11.1059 10.329 10.4639 11.0072 10.4639C11.6853 10.4639 12.2458 11.1059 12.2458 11.8825C12.2458 12.6592 11.7088 13.3012 11.0072 13.3012Z" fill="#F3F3F4"/>
</svg>
