<svg width="35" height="35" viewBox="0 0 35 35" fill="none" xmlns="http://www.w3.org/2000/svg">
<path fill-rule="evenodd" clip-rule="evenodd" d="M7 17.4999C7 11.7098 11.7085 7 17.497 7V7.00017H17.503C23.2915 7.00017 28 11.71 28 17.5001C28 23.29 23.2915 28 17.503 28C15.3678 28 13.3869 27.3643 11.7269 26.2656L7.69108 27.5554L8.99939 23.6543C7.74054 21.9258 7 19.7962 7 17.4999ZM14.1992 12.29C14.482 12.3015 14.6234 12.3184 14.8101 12.7653C14.8703 12.9108 14.9532 13.1117 15.0439 13.3319C15.3024 13.959 15.6253 14.7423 15.6755 14.847C15.7434 14.9884 15.8114 15.1808 15.7151 15.3674C15.6309 15.5464 15.5565 15.6324 15.4327 15.7755C15.4234 15.7862 15.4138 15.7973 15.4039 15.8087C15.3434 15.8789 15.2839 15.9419 15.2246 16.0047C15.1453 16.0886 15.0663 16.1723 14.9853 16.2726C14.9831 16.2753 14.9808 16.278 14.9785 16.2806C14.8504 16.431 14.7111 16.5945 14.8723 16.8723C15.0363 17.1494 15.6019 18.0714 16.4335 18.8123C17.4205 19.6901 18.2356 20.0197 18.6032 20.1683C18.636 20.1816 18.6652 20.1934 18.6907 20.204C18.9225 20.3003 19.1998 20.2776 19.3695 20.0966C19.5534 19.8983 19.7745 19.5881 20.0046 19.2653C20.0435 19.2107 20.0827 19.1558 20.1219 19.101C20.3141 18.8294 20.5573 18.7954 20.8119 18.8915C21.0722 18.9821 22.4469 19.6609 22.7296 19.8023C22.7874 19.8313 22.8411 19.8571 22.8907 19.8809C23.0837 19.9737 23.213 20.0359 23.267 20.1304C23.335 20.2492 23.335 20.8092 23.1031 21.4656C22.8711 22.1216 21.949 22.6649 21.2136 22.8232C20.7102 22.9307 20.0539 23.0156 17.8421 22.0992C15.2224 21.0144 13.4663 18.4689 13.1092 17.9512C13.0807 17.91 13.0611 17.8816 13.0507 17.8679C13.0467 17.8624 13.042 17.8559 13.0366 17.8485C12.8569 17.6028 11.9081 16.3056 11.9081 14.9657C11.9081 13.6241 12.5708 12.9506 12.8676 12.649C12.8761 12.6403 12.8844 12.6319 12.8923 12.6238C13.1243 12.3863 13.5089 12.2788 13.8767 12.2788C13.9843 12.2794 14.0919 12.2831 14.1992 12.29Z" fill="#F3F3F4"/>
</svg>
