<svg width="35" height="35" viewBox="0 0 35 35" fill="none" xmlns="http://www.w3.org/2000/svg">
<path d="M17.9265 24.286L13.9771 24.2122C12.6984 24.1865 11.4165 24.2378 10.1629 23.9714C8.25579 23.5732 8.12069 21.6211 7.97932 19.9837C7.78452 17.6816 7.85993 15.3377 8.22754 13.0549C8.43506 11.774 9.25176 11.0096 10.5148 10.9265C14.7783 10.6246 19.0702 10.6604 23.3243 10.8012C23.7735 10.8141 24.2259 10.8847 24.6689 10.965C26.8558 11.3567 26.9091 13.5689 27.0509 15.4312C27.1922 17.3126 27.1325 19.2038 26.8623 21.0724C26.6455 22.6196 26.2308 23.9171 24.4804 24.0423C22.2873 24.2061 20.1445 24.338 17.9453 24.296C17.9454 24.286 17.9327 24.286 17.9265 24.286ZM15.6046 20.369C17.2573 19.3993 18.8785 18.4457 20.5217 17.4825C18.8659 16.5128 17.2479 15.5593 15.6046 14.5961V20.369Z" fill="#F3F3F4"/>
</svg>
