<svg width="168" height="23" viewBox="0 0 168 23" fill="none" xmlns="http://www.w3.org/2000/svg">
<g clip-path="url(#clip0_127_11)">
<path fill-rule="evenodd" clip-rule="evenodd" d="M18.803 6.09357C20.4858 6.09357 21.85 4.72948 21.85 3.04679C21.85 1.36409 20.4858 0 18.803 0C17.1203 0 15.7562 1.36409 15.7562 3.04679C15.7562 4.72948 17.1203 6.09357 18.803 6.09357Z" fill="white"/>
<path fill-rule="evenodd" clip-rule="evenodd" d="M18.803 14.0873C20.4858 14.0873 21.85 12.7232 21.85 11.0405C21.85 9.3578 20.4858 7.99373 18.803 7.99373C17.1203 7.99373 15.7562 9.3578 15.7562 11.0405C15.7562 12.7232 17.1203 14.0873 18.803 14.0873Z" fill="white"/>
<path fill-rule="evenodd" clip-rule="evenodd" d="M18.803 22.0811C20.4858 22.0811 21.85 20.717 21.85 19.0343C21.85 17.3516 20.4858 15.9875 18.803 15.9875C17.1203 15.9875 15.7562 17.3516 15.7562 19.0343C15.7562 20.717 17.1203 22.0811 18.803 22.0811Z" fill="white"/>
<path fill-rule="evenodd" clip-rule="evenodd" d="M11.0405 14.0873C12.7233 14.0873 14.0875 12.7232 14.0875 11.0405C14.0875 9.3578 12.7233 7.99373 11.0405 7.99373C9.35781 7.99373 7.99365 9.3578 7.99365 11.0405C7.99365 12.7232 9.35781 14.0873 11.0405 14.0873Z" fill="white"/>
<path fill-rule="evenodd" clip-rule="evenodd" d="M11.0405 22.081C12.7233 22.081 14.0875 20.717 14.0875 19.0342C14.0875 17.3516 12.7233 15.9874 11.0405 15.9874C9.35781 15.9874 7.99365 17.3516 7.99365 19.0342C7.99365 20.717 9.35781 22.081 11.0405 22.081Z" fill="white"/>
<path fill-rule="evenodd" clip-rule="evenodd" d="M3.27776 22.081C4.96052 22.081 6.32467 20.7169 6.32467 19.0343C6.32467 17.3515 4.96052 15.9874 3.27776 15.9874C1.59499 15.9874 0.230835 17.3515 0.230835 19.0343C0.230835 20.7169 1.59499 22.081 3.27776 22.081Z" fill="white"/>
</g>
<path d="M33.3055 22.6314C32.8888 22.6314 32.4958 22.5983 32.1265 22.532C31.7572 22.4705 31.44 22.3876 31.1748 22.2834L31.9419 19.7621C32.2828 19.8758 32.5905 19.942 32.8651 19.961C33.1445 19.9799 33.3836 19.9349 33.5825 19.826C33.7861 19.7219 33.9423 19.5348 34.0512 19.265L34.1862 18.9383L30.3083 7.63144H33.9447L35.9546 15.4155H36.0683L38.1066 7.63144H41.7643L37.6521 19.5846C37.4532 20.1812 37.1715 20.7067 36.8069 21.1613C36.4471 21.6205 35.9807 21.9804 35.4078 22.2408C34.8396 22.5012 34.1388 22.6314 33.3055 22.6314ZM47.8367 18.7465C46.6909 18.7465 45.7061 18.5121 44.8822 18.0434C44.0631 17.5699 43.431 16.9117 42.9859 16.0689C42.5455 15.2214 42.3254 14.2389 42.3254 13.1215C42.3254 11.9993 42.5455 11.0169 42.9859 10.174C43.431 9.32651 44.0631 8.66837 44.8822 8.19962C45.7061 7.72613 46.6909 7.48939 47.8367 7.48939C48.9826 7.48939 49.9651 7.72613 50.7842 8.19962C51.608 8.66837 52.2401 9.32651 52.6805 10.174C53.1256 11.0169 53.3481 11.9993 53.3481 13.1215C53.3481 14.2389 53.1256 15.2214 52.6805 16.0689C52.2401 16.9117 51.608 17.5699 50.7842 18.0434C49.9651 18.5121 48.9826 18.7465 47.8367 18.7465ZM47.858 16.1258C48.2747 16.1258 48.6275 15.9979 48.9163 15.7422C49.2051 15.4866 49.4253 15.1314 49.5768 14.6769C49.733 14.2223 49.8112 13.6968 49.8112 13.1002C49.8112 12.4941 49.733 11.9638 49.5768 11.5093C49.4253 11.0547 49.2051 10.6996 48.9163 10.4439C48.6275 10.1883 48.2747 10.0604 47.858 10.0604C47.4272 10.0604 47.0626 10.1883 46.7643 10.4439C46.4707 10.6996 46.2458 11.0547 46.0896 11.5093C45.9381 11.9638 45.8623 12.4941 45.8623 13.1002C45.8623 13.6968 45.9381 14.2223 46.0896 14.6769C46.2458 15.1314 46.4707 15.4866 46.7643 15.7422C47.0626 15.9979 47.4272 16.1258 47.858 16.1258ZM62.1656 13.8317V7.63144H65.6315V18.5405H62.3218V16.5093H62.2082C61.9667 17.1769 61.5548 17.7072 60.9724 18.1002C60.3947 18.4884 59.6963 18.6826 58.8772 18.6826C58.1338 18.6826 57.4804 18.5121 56.917 18.1712C56.3535 17.8303 55.9156 17.3544 55.6031 16.7437C55.2906 16.1281 55.132 15.4084 55.1272 14.5846V7.63144H58.6002V13.9027C58.605 14.4946 58.7612 14.961 59.069 15.3019C59.3767 15.6428 59.7958 15.8133 60.3261 15.8133C60.6717 15.8133 60.9819 15.7375 61.2565 15.586C61.5358 15.4297 61.756 15.2048 61.917 14.9113C62.0827 14.613 62.1656 14.2531 62.1656 13.8317ZM67.8421 18.5405V7.63144H71.2156V9.62007H71.3293C71.5281 8.90038 71.8525 8.36534 72.3023 8.01496C72.7521 7.65985 73.2753 7.48229 73.8719 7.48229C74.0329 7.48229 74.1986 7.49413 74.3691 7.5178C74.5395 7.53674 74.6981 7.56752 74.8449 7.61013V10.6286C74.6792 10.5718 74.4614 10.5268 74.1915 10.4937C73.9263 10.4605 73.6896 10.4439 73.4813 10.4439C73.0693 10.4439 72.6977 10.5363 72.3662 10.7209C72.0395 10.9008 71.7815 11.1542 71.5921 11.4809C71.4074 11.8028 71.3151 12.1816 71.3151 12.6172V18.5405H67.8421ZM80.786 18.7465C79.6354 18.7465 78.6482 18.5098 77.8243 18.0363C77.0052 17.5628 76.3754 16.9046 75.9351 16.0618C75.4948 15.2143 75.2746 14.2342 75.2746 13.1215C75.2746 12.0041 75.4948 11.024 75.9351 10.1812C76.3802 9.33361 77.0123 8.6731 77.8314 8.19962C78.6553 7.72613 79.6378 7.48939 80.7789 7.48939C81.7874 7.48939 82.6657 7.67168 83.4138 8.03627C84.1666 8.40085 84.7538 8.91695 85.1752 9.58456C85.6013 10.2474 85.8262 11.0263 85.8499 11.9212H82.6041C82.5378 11.3625 82.3485 10.9245 82.036 10.6073C81.7282 10.2901 81.3257 10.1314 80.8286 10.1314C80.4261 10.1314 80.0734 10.2451 79.7703 10.4723C79.4673 10.6949 79.2306 11.0263 79.0601 11.4667C78.8944 11.9023 78.8115 12.442 78.8115 13.086C78.8115 13.7299 78.8944 14.2744 79.0601 14.7195C79.2306 15.1598 79.4673 15.4937 79.7703 15.7209C80.0734 15.9435 80.4261 16.0547 80.8286 16.0547C81.1505 16.0547 81.4346 15.9861 81.6808 15.8488C81.9318 15.7115 82.1378 15.5102 82.2987 15.2451C82.4597 14.9752 82.5615 14.6485 82.6041 14.265H85.8499C85.8167 15.1646 85.5918 15.9506 85.1752 16.6229C84.7632 17.2953 84.1832 17.8185 83.4351 18.1925C82.6917 18.5618 81.8087 18.7465 80.786 18.7465ZM92.7195 18.7465C91.5737 18.7465 90.5889 18.5121 89.765 18.0434C88.9459 17.5699 88.3138 16.9117 87.8687 16.0689C87.4284 15.2214 87.2082 14.2389 87.2082 13.1215C87.2082 11.9993 87.4284 11.0169 87.8687 10.174C88.3138 9.32651 88.9459 8.66837 89.765 8.19962C90.5889 7.72613 91.5737 7.48939 92.7195 7.48939C93.8654 7.48939 94.8479 7.72613 95.667 8.19962C96.4909 8.66837 97.123 9.32651 97.5633 10.174C98.0084 11.0169 98.2309 11.9993 98.2309 13.1215C98.2309 14.2389 98.0084 15.2214 97.5633 16.0689C97.123 16.9117 96.4909 17.5699 95.667 18.0434C94.8479 18.5121 93.8654 18.7465 92.7195 18.7465ZM92.7409 16.1258C93.1575 16.1258 93.5103 15.9979 93.7991 15.7422C94.0879 15.4866 94.3081 15.1314 94.4596 14.6769C94.6159 14.2223 94.694 13.6968 94.694 13.1002C94.694 12.4941 94.6159 11.9638 94.4596 11.5093C94.3081 11.0547 94.0879 10.6996 93.7991 10.4439C93.5103 10.1883 93.1575 10.0604 92.7409 10.0604C92.31 10.0604 91.9454 10.1883 91.6471 10.4439C91.3535 10.6996 91.1286 11.0547 90.9724 11.5093C90.8209 11.9638 90.7451 12.4941 90.7451 13.1002C90.7451 13.6968 90.8209 14.2223 90.9724 14.6769C91.1286 15.1314 91.3535 15.4866 91.6471 15.7422C91.9454 15.9979 92.31 16.1258 92.7409 16.1258ZM100.01 18.5405V7.63144H103.313V9.63428H103.433C103.661 8.9714 104.044 8.4482 104.584 8.06467C105.124 7.68115 105.768 7.48939 106.516 7.48939C107.273 7.48939 107.922 7.68352 108.462 8.07178C109.002 8.46003 109.345 8.98087 109.492 9.63428H109.605C109.809 8.9856 110.207 8.46714 110.798 8.07888C111.39 7.68589 112.089 7.48939 112.894 7.48939C113.926 7.48939 114.764 7.82083 115.408 8.48371C116.052 9.14185 116.374 10.0462 116.374 11.1968V18.5405H112.901V11.9922C112.901 11.4477 112.761 11.0334 112.482 10.7493C112.202 10.4605 111.84 10.3161 111.395 10.3161C110.917 10.3161 110.54 10.4723 110.266 10.7848C109.996 11.0926 109.861 11.5069 109.861 12.0277V18.5405H106.523V11.9567C106.523 11.4501 106.386 11.05 106.111 10.7564C105.836 10.4629 105.474 10.3161 105.024 10.3161C104.721 10.3161 104.454 10.3895 104.222 10.5363C103.99 10.6783 103.807 10.8819 103.675 11.1471C103.547 11.4122 103.483 11.7247 103.483 12.0846V18.5405H100.01ZM118.526 22.6314V7.63144H121.963V9.49933H122.07C122.212 9.16789 122.413 8.84829 122.673 8.54053C122.939 8.23276 123.275 7.98182 123.682 7.78769C124.094 7.58882 124.586 7.48939 125.159 7.48939C125.917 7.48939 126.625 7.68825 127.283 8.08598C127.946 8.48371 128.481 9.09687 128.888 9.92547C129.295 10.7541 129.499 11.8099 129.499 13.0931C129.499 14.3289 129.302 15.3634 128.909 16.1968C128.521 17.0301 127.995 17.6551 127.332 18.0718C126.674 18.4884 125.943 18.6968 125.138 18.6968C124.589 18.6968 124.113 18.6068 123.71 18.4269C123.308 18.247 122.969 18.0102 122.695 17.7167C122.425 17.4231 122.216 17.1082 122.07 16.7721H121.999V22.6314H118.526ZM121.928 13.086C121.928 13.6731 122.006 14.1845 122.162 14.6201C122.323 15.0557 122.553 15.3942 122.851 15.6357C123.154 15.8724 123.516 15.9908 123.938 15.9908C124.364 15.9908 124.726 15.8724 125.024 15.6357C125.323 15.3942 125.547 15.0557 125.699 14.6201C125.855 14.1845 125.933 13.6731 125.933 13.086C125.933 12.4989 125.855 11.9899 125.699 11.559C125.547 11.1281 125.323 10.7943 125.024 10.5576C124.731 10.3208 124.368 10.2025 123.938 10.2025C123.511 10.2025 123.149 10.3185 122.851 10.5505C122.553 10.7825 122.323 11.1139 122.162 11.5448C122.006 11.9757 121.928 12.4894 121.928 13.086ZM134.394 18.7252C133.698 18.7252 133.08 18.6092 132.54 18.3772C132.005 18.1404 131.581 17.7853 131.269 17.3118C130.961 16.8336 130.807 16.2347 130.807 15.515C130.807 14.9089 130.914 14.3975 131.127 13.9809C131.34 13.5642 131.633 13.2257 132.008 12.9652C132.382 12.7048 132.812 12.5083 133.3 12.3758C133.788 12.2384 134.309 12.1461 134.863 12.0988C135.483 12.0419 135.982 11.9828 136.361 11.9212C136.74 11.8549 137.015 11.7626 137.185 11.6442C137.36 11.5211 137.448 11.3483 137.448 11.1258V11.0902C137.448 10.7257 137.322 10.4439 137.071 10.2451C136.821 10.0462 136.482 9.94678 136.056 9.94678C135.597 9.94678 135.227 10.0462 134.948 10.2451C134.669 10.4439 134.491 10.7186 134.415 11.0689L131.212 10.9553C131.307 10.2924 131.551 9.70057 131.944 9.17973C132.341 8.65416 132.886 8.24223 133.577 7.94394C134.273 7.64091 135.109 7.48939 136.084 7.48939C136.78 7.48939 137.422 7.57225 138.009 7.73797C138.596 7.89895 139.107 8.1357 139.543 8.4482C139.979 8.75596 140.315 9.13475 140.552 9.58456C140.793 10.0344 140.914 10.5481 140.914 11.1258V18.5405H137.647V17.0206H137.562C137.367 17.39 137.119 17.7025 136.816 17.9581C136.517 18.2138 136.165 18.4056 135.758 18.5334C135.355 18.6613 134.901 18.7252 134.394 18.7252ZM135.466 16.4525C135.84 16.4525 136.177 16.3767 136.475 16.2252C136.778 16.0737 137.019 15.8653 137.199 15.6002C137.379 15.3303 137.469 15.0178 137.469 14.6627V13.6258C137.37 13.6778 137.249 13.7252 137.107 13.7678C136.97 13.8104 136.818 13.8507 136.652 13.8885C136.487 13.9264 136.316 13.9596 136.141 13.988C135.966 14.0164 135.798 14.0424 135.637 14.0661C135.31 14.1182 135.031 14.1987 134.799 14.3076C134.571 14.4165 134.396 14.5585 134.273 14.7337C134.155 14.9042 134.096 15.1078 134.096 15.3445C134.096 15.7044 134.223 15.979 134.479 16.1684C134.74 16.3578 135.069 16.4525 135.466 16.4525ZM146.51 12.3189V18.5405H143.037V7.63144H146.34V9.63428H146.461C146.702 8.96666 147.114 8.44346 147.696 8.06467C148.279 7.68115 148.973 7.48939 149.777 7.48939C150.544 7.48939 151.21 7.66221 151.773 8.00786C152.341 8.34877 152.782 8.82699 153.094 9.44252C153.411 10.0533 153.568 10.7683 153.563 11.5874V18.5405H150.09V12.2692C150.095 11.6632 149.941 11.1897 149.628 10.8488C149.321 10.5079 148.892 10.3374 148.343 10.3374C147.978 10.3374 147.656 10.4179 147.377 10.5789C147.102 10.7351 146.889 10.96 146.738 11.2536C146.591 11.5472 146.515 11.9023 146.51 12.3189ZM157.446 22.6314C157.029 22.6314 156.636 22.5983 156.267 22.532C155.898 22.4705 155.581 22.3876 155.315 22.2834L156.082 19.7621C156.423 19.8758 156.731 19.942 157.006 19.961C157.285 19.9799 157.524 19.9349 157.723 19.826C157.927 19.7219 158.083 19.5348 158.192 19.265L158.327 18.9383L154.449 7.63144H158.085L160.095 15.4155H160.209L162.247 7.63144H165.905L161.793 19.5846C161.594 20.1812 161.312 20.7067 160.948 21.1613C160.588 21.6205 160.121 21.9804 159.548 22.2408C158.98 22.5012 158.279 22.6314 157.446 22.6314Z" fill="white"/>
<defs>
<clipPath id="clip0_127_11">
<rect width="22.0811" height="22.0811" fill="white"/>
</clipPath>
</defs>
</svg>
