<svg width="130" height="50" viewBox="0 0 130 50" fill="none" xmlns="http://www.w3.org/2000/svg">
<g filter="url(#filter0_i_67_330)">
<path d="M20.0704 2.94507H21.4525C22.3243 3.20882 22.7581 3.71398 22.7538 4.46055C22.7323 8.03603 22.7473 11.5934 22.799 15.1327C22.7882 20.6055 22.785 26.0612 22.7893 31.5C22.7925 37.7693 14.4034 39.489 11.8879 33.7588C11.5887 33.0803 11.4477 31.8764 11.4649 30.1472C11.5101 25.17 11.5133 20.2492 11.4746 15.3848C11.4724 15.2699 11.4165 15.2285 11.3067 15.2604L0.960695 18.0999C0.954237 15.4327 0.955313 12.7728 0.963924 10.1205C0.966076 9.50791 1.34603 9.07719 2.10379 8.82833C8.07975 6.86725 14.0686 4.90616 20.0704 2.94507Z" fill="url(#paint0_linear_67_330)"/>
<path d="M22.7989 15.1328L31.0448 17.4038C32.3464 17.7623 33.2483 18.946 33.2483 20.2961V31.8159C32.7574 36.7356 30.5918 40.6323 26.7513 43.5058C24.3231 45.3202 21.4664 46.3698 18.1814 46.6549H15.9823C12.82 46.372 10.0581 45.3776 7.69652 43.6717C4.37272 41.2725 2.27166 38.1618 1.39335 34.3396C1.10058 33.0634 0.955268 30.9459 0.957421 27.9873C0.957421 24.6862 0.958497 21.3904 0.96065 18.1L11.3066 15.2604C11.4164 15.2285 11.4724 15.27 11.4745 15.3848C11.5133 20.2493 11.5101 25.1701 11.4649 30.1473C11.4476 31.8765 11.5886 33.0804 11.8879 33.7589C14.4033 39.489 22.7925 37.7693 22.7893 31.5C22.785 26.0613 22.7882 20.6056 22.7989 15.1328Z" fill="url(#paint1_linear_67_330)"/>
</g>
<path d="M47.014 26.209H42.9612V25.1836H47.014C47.8603 25.1836 48.5472 25.0469 49.0745 24.7734C49.6084 24.4935 49.9957 24.1159 50.2366 23.6406C50.484 23.1654 50.6077 22.6315 50.6077 22.0391C50.6077 21.4596 50.484 20.9258 50.2366 20.4375C49.9957 19.9492 49.6084 19.5586 49.0745 19.2656C48.5472 18.9661 47.8603 18.8164 47.014 18.8164H43.3812V32H42.18V17.7812H47.014C48.0556 17.7812 48.9313 17.9603 49.6409 18.3184C50.3571 18.6764 50.8974 19.1745 51.262 19.8125C51.6266 20.4505 51.8089 21.1862 51.8089 22.0195C51.8089 22.8919 51.6266 23.6439 51.262 24.2754C50.8974 24.9004 50.3603 25.3789 49.6507 25.7109C48.9411 26.043 48.0622 26.209 47.014 26.209ZM55.3929 23.1816V32H54.2308V21.4336H55.3636L55.3929 23.1816ZM59.1331 21.3555L59.1038 22.4297C58.9736 22.4102 58.8467 22.3939 58.723 22.3809C58.5993 22.3678 58.4658 22.3613 58.3226 22.3613C57.8148 22.3613 57.3688 22.4557 56.9847 22.6445C56.6071 22.8268 56.2881 23.084 56.0276 23.416C55.7672 23.7415 55.5687 24.1257 55.4319 24.5684C55.2952 25.0046 55.2171 25.4733 55.1976 25.9746L54.7679 26.1406C54.7679 25.4505 54.8395 24.8092 54.9827 24.2168C55.126 23.6243 55.3441 23.1068 55.637 22.6641C55.9365 22.2148 56.3109 21.8665 56.7601 21.6191C57.2158 21.3652 57.7497 21.2383 58.3616 21.2383C58.5114 21.2383 58.6579 21.2513 58.8011 21.2773C58.9508 21.2969 59.0615 21.3229 59.1331 21.3555ZM62.2679 21.4336V32H61.1058V21.4336H62.2679ZM60.9007 18.377C60.9007 18.1556 60.9691 17.9701 61.1058 17.8203C61.249 17.6641 61.4443 17.5859 61.6917 17.5859C61.9391 17.5859 62.1344 17.6641 62.2776 17.8203C62.4274 17.9701 62.5023 18.1556 62.5023 18.377C62.5023 18.5918 62.4274 18.7773 62.2776 18.9336C62.1344 19.0833 61.9391 19.1582 61.6917 19.1582C61.4443 19.1582 61.249 19.0833 61.1058 18.9336C60.9691 18.7773 60.9007 18.5918 60.9007 18.377ZM66.5648 23.6211V32H65.3929V21.4336H66.5159L66.5648 23.6211ZM66.3499 26.0625L65.7835 25.7695C65.8226 25.1445 65.9398 24.5586 66.1351 24.0117C66.3369 23.4648 66.6168 22.9831 66.9749 22.5664C67.333 22.1497 67.7627 21.8242 68.264 21.5898C68.7653 21.3555 69.3349 21.2383 69.973 21.2383C70.4873 21.2383 70.9528 21.3099 71.3694 21.4531C71.7926 21.5898 72.1507 21.8079 72.4437 22.1074C72.7431 22.4004 72.9743 22.7845 73.137 23.2598C73.2998 23.735 73.3812 24.3047 73.3812 24.9688V32H72.2191V25.0078C72.2191 24.3047 72.1084 23.7546 71.887 23.3574C71.6722 22.9603 71.3694 22.6771 70.9788 22.5078C70.5947 22.3385 70.1487 22.2539 69.6409 22.2539C69.042 22.2539 68.5342 22.3776 68.1175 22.625C67.7073 22.8659 67.372 23.1816 67.1116 23.5723C66.8577 23.9564 66.6689 24.3698 66.5452 24.8125C66.4215 25.2487 66.3564 25.6654 66.3499 26.0625ZM73.3714 25.1445L72.5901 25.1641C72.6227 24.6497 72.7399 24.1582 72.9417 23.6895C73.15 23.2207 73.4332 22.804 73.7913 22.4395C74.1494 22.0684 74.5758 21.7754 75.0706 21.5605C75.5719 21.3457 76.1351 21.2383 76.7601 21.2383C77.3069 21.2383 77.7952 21.3132 78.2249 21.4629C78.6546 21.6061 79.0159 21.8372 79.3089 22.1562C79.6084 22.4688 79.8362 22.8691 79.9925 23.3574C80.1487 23.8457 80.2269 24.4316 80.2269 25.1152V32H79.055V25.1055C79.055 24.3568 78.9443 23.7773 78.723 23.3672C78.5081 22.9505 78.2086 22.6608 77.8245 22.498C77.4404 22.3353 76.9912 22.2539 76.4769 22.2539C75.9691 22.2604 75.5231 22.3548 75.139 22.5371C74.7549 22.7129 74.4326 22.9473 74.1722 23.2402C73.9183 23.5267 73.723 23.8359 73.5862 24.168C73.456 24.5 73.3844 24.8255 73.3714 25.1445ZM87.2776 32.1953C86.5875 32.1953 85.9528 32.0684 85.3734 31.8145C84.8004 31.5605 84.2991 31.2025 83.8694 30.7402C83.4463 30.278 83.1175 29.7311 82.8831 29.0996C82.6553 28.4616 82.5413 27.765 82.5413 27.0098V26.5898C82.5413 25.776 82.6618 25.0404 82.9026 24.3828C83.1435 23.7253 83.4756 23.1621 83.8987 22.6934C84.3219 22.2246 84.8037 21.8665 85.3441 21.6191C85.8909 21.3652 86.4638 21.2383 87.0628 21.2383C87.7334 21.2383 88.3291 21.3587 88.8499 21.5996C89.3707 21.834 89.8069 22.1693 90.1585 22.6055C90.5166 23.0352 90.7868 23.5462 90.9691 24.1387C91.1513 24.7246 91.2425 25.3724 91.2425 26.082V26.7949H83.2444V25.7988H90.0804V25.6621C90.0674 25.0697 89.9469 24.5163 89.7191 24.002C89.4977 23.4811 89.1657 23.0579 88.723 22.7324C88.2803 22.4069 87.7269 22.2441 87.0628 22.2441C86.568 22.2441 86.1123 22.3483 85.6956 22.5566C85.2855 22.765 84.9306 23.0645 84.6312 23.4551C84.3382 23.8392 84.1103 24.2982 83.9476 24.832C83.7913 25.3594 83.7132 25.9453 83.7132 26.5898V27.0098C83.7132 27.5957 83.7978 28.1426 83.9671 28.6504C84.1429 29.1517 84.3903 29.5944 84.7093 29.9785C85.0348 30.3626 85.4189 30.6621 85.8616 30.877C86.3043 31.0918 86.7926 31.1992 87.3265 31.1992C87.9515 31.1992 88.5049 31.0853 88.9866 30.8574C89.4684 30.623 89.9013 30.2552 90.2855 29.7539L91.0179 30.3203C90.79 30.6589 90.5036 30.9714 90.1585 31.2578C89.82 31.5443 89.4131 31.7721 88.9378 31.9414C88.4625 32.1107 87.9092 32.1953 87.2776 32.1953ZM94.7093 23.1816V32H93.5472V21.4336H94.68L94.7093 23.1816ZM98.4495 21.3555L98.4202 22.4297C98.29 22.4102 98.1631 22.3939 98.0394 22.3809C97.9157 22.3678 97.7822 22.3613 97.639 22.3613C97.1312 22.3613 96.6852 22.4557 96.3011 22.6445C95.9235 22.8268 95.6045 23.084 95.3441 23.416C95.0836 23.7415 94.8851 24.1257 94.7484 24.5684C94.6116 25.0046 94.5335 25.4733 94.514 25.9746L94.0843 26.1406C94.0843 25.4505 94.1559 24.8092 94.2991 24.2168C94.4424 23.6243 94.6605 23.1068 94.9534 22.6641C95.2529 22.2148 95.6273 21.8665 96.0765 21.6191C96.5322 21.3652 97.0661 21.2383 97.678 21.2383C97.8278 21.2383 97.9743 21.2513 98.1175 21.2773C98.2672 21.2969 98.3779 21.3229 98.4495 21.3555ZM99.4456 26.8828V26.5605C99.4456 25.7923 99.5563 25.0827 99.7776 24.4316C99.999 23.7806 100.315 23.2174 100.725 22.7422C101.142 22.2669 101.64 21.8991 102.219 21.6387C102.798 21.3717 103.443 21.2383 104.153 21.2383C104.869 21.2383 105.517 21.3717 106.096 21.6387C106.675 21.8991 107.173 22.2669 107.59 22.7422C108.007 23.2174 108.326 23.7806 108.547 24.4316C108.769 25.0827 108.879 25.7923 108.879 26.5605V26.8828C108.879 27.651 108.769 28.3607 108.547 29.0117C108.326 29.6562 108.007 30.2161 107.59 30.6914C107.18 31.1667 106.685 31.5378 106.106 31.8047C105.526 32.0651 104.882 32.1953 104.172 32.1953C103.456 32.1953 102.808 32.0651 102.229 31.8047C101.649 31.5378 101.151 31.1667 100.735 30.6914C100.318 30.2161 99.999 29.6562 99.7776 29.0117C99.5563 28.3607 99.4456 27.651 99.4456 26.8828ZM100.608 26.5605V26.8828C100.608 27.4622 100.686 28.0124 100.842 28.5332C100.998 29.0475 101.226 29.5065 101.526 29.9102C101.825 30.3073 102.196 30.6198 102.639 30.8477C103.082 31.0755 103.593 31.1895 104.172 31.1895C104.745 31.1895 105.25 31.0755 105.686 30.8477C106.129 30.6198 106.5 30.3073 106.799 29.9102C107.099 29.5065 107.323 29.0475 107.473 28.5332C107.629 28.0124 107.707 27.4622 107.707 26.8828V26.5605C107.707 25.9876 107.629 25.444 107.473 24.9297C107.323 24.4154 107.095 23.9564 106.789 23.5527C106.49 23.1491 106.119 22.8301 105.676 22.5957C105.233 22.3613 104.726 22.2441 104.153 22.2441C103.58 22.2441 103.072 22.3613 102.629 22.5957C102.193 22.8301 101.822 23.1491 101.516 23.5527C101.216 23.9564 100.989 24.4154 100.832 24.9297C100.683 25.444 100.608 25.9876 100.608 26.5605Z" fill="#DADCE0"/>
<path d="M118.567 17.7812H121.994V27.0684C121.994 28.1751 121.763 29.1126 121.301 29.8809C120.839 30.6426 120.191 31.2188 119.358 31.6094C118.524 32 117.545 32.1953 116.418 32.1953C115.305 32.1953 114.325 32 113.479 31.6094C112.639 31.2188 111.981 30.6426 111.506 29.8809C111.037 29.1126 110.803 28.1751 110.803 27.0684V17.7812H114.241V27.0684C114.241 27.6543 114.325 28.1328 114.494 28.5039C114.664 28.8685 114.911 29.1354 115.237 29.3047C115.562 29.474 115.956 29.5586 116.418 29.5586C116.887 29.5586 117.281 29.474 117.6 29.3047C117.919 29.1354 118.16 28.8685 118.323 28.5039C118.485 28.1328 118.567 27.6543 118.567 27.0684V17.7812ZM127.795 17.7812V32H124.377V17.7812H127.795Z" fill="#4D9FFE"/>
<defs>
<filter id="filter0_i_67_330" x="0.956543" y="2.94507" width="32.2917" height="44.7098" filterUnits="userSpaceOnUse" color-interpolation-filters="sRGB">
<feFlood flood-opacity="0" result="BackgroundImageFix"/>
<feBlend mode="normal" in="SourceGraphic" in2="BackgroundImageFix" result="shape"/>
<feColorMatrix in="SourceAlpha" type="matrix" values="0 0 0 0 0 0 0 0 0 0 0 0 0 0 0 0 0 0 127 0" result="hardAlpha"/>
<feOffset dy="1"/>
<feGaussianBlur stdDeviation="0.5"/>
<feComposite in2="hardAlpha" operator="arithmetic" k2="-1" k3="1"/>
<feColorMatrix type="matrix" values="0 0 0 0 0 0 0 0 0 0 0 0 0 0 0 0 0 0 0.25 0"/>
<feBlend mode="normal" in2="shape" result="effect1_innerShadow_67_330"/>
</filter>
<linearGradient id="paint0_linear_67_330" x1="11.8778" y1="2.94507" x2="16.8856" y2="33.019" gradientUnits="userSpaceOnUse">
<stop stop-color="#F3F3F4"/>
<stop offset="0.422391" stop-color="#8EC1FF"/>
<stop offset="1" stop-color="#2388FF"/>
</linearGradient>
<linearGradient id="paint1_linear_67_330" x1="17.1028" y1="15.1328" x2="17.1028" y2="46.6549" gradientUnits="userSpaceOnUse">
<stop stop-color="#0565D6"/>
<stop offset="1" stop-color="#2388FF"/>
</linearGradient>
</defs>
</svg>
